<svg width="57" height="57" viewBox="0 0 57 57" fill="none" xmlns="http://www.w3.org/2000/svg">
<rect x="0.833008" y="1" width="55" height="55" rx="27.5" stroke="#50433C"/>
<g clip-path="url(#clip0_2057_3364)">
<path d="M40.5683 30.4519V12.5C39.5857 12.5 13.8974 12.5 12.333 12.5V40.7353H30.2849C31.5887 42.9841 34.0224 44.5 36.8036 44.5C40.9553 44.5 44.333 41.1223 44.333 36.9706C44.333 34.1894 42.8171 31.7558 40.5683 30.4519ZM28.333 14.3824V20.0294H24.5683V14.3824H28.333ZM14.2154 27.5588H23.6271V33.2059H14.2154V27.5588ZM14.2154 38.8529V35.0882H25.5095V25.6765H14.2154V14.3824H22.6859V21.9118H30.2154V14.3824H38.686V29.6794C33.1617 28.2523 28.0774 33.2977 29.5124 38.8529H14.2154ZM36.8036 42.6176C33.6898 42.6176 31.1565 40.0844 31.1565 36.9706C31.1565 33.8568 33.6898 31.3235 36.8036 31.3235C39.9174 31.3235 42.4507 33.8568 42.4507 36.9706C42.4507 40.0844 39.9174 42.6176 36.8036 42.6176Z" fill="#50433C"/>
<path d="M16.0977 29.4412H21.7447V31.3235H16.0977V29.4412Z" fill="#50433C"/>
<path d="M38.5223 33.9836L36.8348 35.671L35.1474 33.9836L33.8164 35.3147L35.5038 37.0021L33.8164 38.6895L35.1474 40.0205L36.8348 38.3331L38.5223 40.0205L39.8532 38.6895L38.1658 37.0021L39.8532 35.3147L38.5223 33.9836Z" fill="#50433C"/>
</g>
<defs>
<clipPath id="clip0_2057_3364">
<rect width="32" height="32" fill="white" transform="translate(12.333 12.5)"/>
</clipPath>
</defs>
</svg>
