<svg width="56" height="57" viewBox="0 0 56 57" fill="none" xmlns="http://www.w3.org/2000/svg">
<rect x="0.5" y="1" width="55" height="55" rx="27.5" stroke="#50433C"/>
<g clip-path="url(#clip0_2057_3341)">
<path d="M43.0711 33.6527C41.8346 32.4161 39.8225 32.4161 38.586 33.6527L35.6435 36.6667C34.9042 34.9502 33.1964 33.7452 31.2119 33.7452H28.9409C27.5596 32.896 25.9767 32.4487 24.3442 32.4487C22.4749 32.4487 20.7043 33.0214 19.2022 34.1083H12V44.5001H17.625V42.573H20.9511L25.9902 44.2581C26.4704 44.4187 26.9706 44.5001 27.4769 44.5001H34.7116C35.9994 44.5001 37.2101 43.9986 38.1207 43.0879L43.0706 38.1375C43.6699 37.539 44 36.7426 44 35.8949C44 35.0471 43.6699 34.2506 43.0711 33.6527ZM15.75 42.6251H13.875V35.9833H15.75V42.6251ZM41.7452 36.8113L36.7948 41.7621C36.2384 42.3186 35.4986 42.6251 34.7116 42.6251H27.4769C27.1732 42.6251 26.8731 42.5762 26.585 42.4799L21.2563 40.698H17.625V35.9834H19.8376L20.0919 35.7848C21.3159 34.829 22.7863 34.3239 24.3441 34.3239C25.7048 34.3239 27.0211 34.7184 28.1509 35.465L31.2119 35.6203C32.5097 35.6203 33.6134 36.4636 34.0061 37.6307H26.7928V39.5057H35.4923L39.9153 34.9752C40.421 34.4732 41.2409 34.4743 41.7458 34.9791C41.9903 35.2233 42.125 35.5485 42.125 35.895C42.125 36.2414 41.9903 36.5665 41.7452 36.8113Z" fill="#50433C"/>
<path d="M37.375 12.5H18.625V30.5723H37.375V12.5ZM28.9375 14.375V20.5987H27.0625V14.375H28.9375ZM35.5 28.6973H20.5V14.375H25.1875V22.4737H30.8125V14.375H35.5V28.6973Z" fill="#50433C"/>
<path d="M28 24.9543H33.6383V26.8293H28V24.9543Z" fill="#50433C"/>
</g>
<defs>
<clipPath id="clip0_2057_3341">
<rect width="32" height="32" fill="white" transform="translate(12 12.5)"/>
</clipPath>
</defs>
</svg>
