<svg width="108" height="108" viewBox="0 0 108 108" fill="none" xmlns="http://www.w3.org/2000/svg">
<rect width="108" height="108" rx="54" fill="#201F1E"/>
<g clip-path="url(#clip0_4004_3988)">
<path d="M25.2891 59.6064C24.5771 59.6064 24 59.0293 24 58.3174V48.7192C24 48.3773 24.1358 48.0495 24.3776 47.8077C24.6193 47.566 24.9472 47.4302 25.2891 47.4302H30.3629L34.7279 43.713C35.2699 43.2514 36.0834 43.3165 36.5452 43.8586C37.0066 44.4006 36.9415 45.2143 36.3995 45.6759L31.6732 49.7007C31.44 49.8992 31.1437 50.0083 30.8374 50.0083H26.578V58.3174C26.5781 59.0293 26.001 59.6064 25.2891 59.6064Z" fill="#B6A69D"/>
<path d="M82.7109 26.9297H35.8359C35.124 26.9297 34.5469 27.5068 34.5469 28.2187V53.6068C34.5469 54.3187 35.124 54.8959 35.8359 54.8959C36.5479 54.8959 37.125 54.3187 37.125 53.6068V29.5078H52.5082V40.2663C52.5082 40.4873 52.565 40.7046 52.6732 40.8972C52.7813 41.0899 52.9372 41.2516 53.1258 41.3667C53.3144 41.4818 53.5295 41.5465 53.7503 41.5546C53.9711 41.5626 54.1903 41.5138 54.3868 41.4128L59.2734 38.8997L64.16 41.4128C64.3565 41.5138 64.5757 41.5626 64.7965 41.5546C65.0173 41.5465 65.2324 41.4818 65.421 41.3667C65.6096 41.2516 65.7654 41.09 65.8736 40.8973C65.9817 40.7046 66.0385 40.4874 66.0386 40.2664V29.5078H81.4219V70.4429H67.6591C66.9472 70.4429 66.3701 71.0201 66.3701 71.732C66.3701 72.4439 66.9472 73.021 67.6591 73.021H82.7109C83.4229 73.021 84 72.4439 84 71.732V28.2187C84 27.5068 83.4229 26.9297 82.7109 26.9297ZM63.4604 38.1539L59.8629 36.3038C59.6805 36.21 59.4784 36.161 59.2733 36.161C59.0682 36.161 58.8661 36.21 58.6837 36.3038L55.0862 38.1539V29.5078H63.4604V38.1539Z" fill="#CDC2BC"/>
<path d="M71.0454 66.366C71.0454 64.5166 69.7748 62.9583 68.0609 62.5183C68.2604 62.0371 68.3629 61.5212 68.3624 61.0002C68.3624 58.8101 66.5805 57.0281 64.3904 57.0281H46.9666L47.633 56.4154L50.5941 55.7213C52.2585 55.331 53.705 54.1378 54.5628 52.4478C55.3548 50.8874 55.5082 49.2031 54.9734 47.9424C54.8676 47.693 54.6859 47.4833 54.4542 47.343C54.2224 47.2028 53.9524 47.1391 53.6824 47.161L43.4934 47.9876C40.9152 48.1968 39.0891 49.5974 38.5907 50.0217L30.363 57.0283H25.2892C25.1199 57.0283 24.9523 57.0616 24.7959 57.1263C24.6395 57.1911 24.4974 57.2861 24.3776 57.4057C24.2579 57.5254 24.163 57.6675 24.0982 57.8239C24.0334 57.9803 24 58.1479 24 58.3172V78.0226C24 78.1919 24.0333 78.3596 24.0981 78.516C24.1629 78.6724 24.2579 78.8145 24.3776 78.9342C24.4973 79.0539 24.6394 79.1488 24.7958 79.2136C24.9523 79.2784 25.1199 79.3117 25.2892 79.3117L29.706 79.3116C31.2701 79.3116 32.1782 79.6527 33.2296 80.0476C34.5046 80.5266 35.9498 81.0695 38.5537 81.0696H59.0244C61.2145 81.0696 62.9965 79.2878 62.9965 77.0977C62.9965 76.6075 62.9072 76.1378 62.7441 75.7039H64.3905C66.5807 75.7039 68.3624 73.922 68.3624 71.7319C68.3624 71.2028 68.2589 70.689 68.0614 70.2136C69.7752 69.7733 71.0454 68.2152 71.0454 66.366ZM67.0734 67.7598H49.8755C49.1636 67.7598 48.5864 68.337 48.5864 69.0489C48.5864 69.7608 49.1636 70.338 49.8755 70.338H64.3903C64.7597 70.338 65.1089 70.4837 65.3736 70.7485C65.6384 71.0132 65.7841 71.3624 65.7841 71.7318C65.7841 72.5004 65.1589 73.1256 64.3904 73.1256H49.8755C49.1636 73.1256 48.5864 73.7028 48.5864 74.4147C48.5864 75.1266 49.1636 75.7037 49.8755 75.7037H59.0244C59.793 75.7037 60.4184 76.3289 60.4184 77.0976C60.4184 77.8662 59.793 78.4914 59.0244 78.4914H38.5537C36.4181 78.4914 35.3096 78.0749 34.1361 77.6342C32.9572 77.1913 31.7384 76.7333 29.7059 76.7335H26.5781V59.6063H30.8375C31.1439 59.6063 31.4401 59.4972 31.6733 59.2987L40.2621 51.9845C40.9498 51.399 42.2632 50.6739 43.7019 50.5572L52.6959 49.8274C52.6602 50.2518 52.5294 50.7576 52.2637 51.2808C51.7509 52.2913 50.9278 52.9948 50.0055 53.2111L46.715 53.9824C46.4991 54.0331 46.2998 54.1386 46.1365 54.2888L42.7882 57.3685C42.5972 57.5442 42.4636 57.7734 42.4051 58.0263C42.3465 58.2791 42.3656 58.5438 42.4599 58.7856C42.5542 59.0274 42.7193 59.2351 42.9336 59.3815C43.1479 59.5279 43.4014 59.6063 43.6609 59.6063H64.3902C65.1588 59.6063 65.784 60.2316 65.784 61.0002C65.784 61.7689 65.1587 62.3942 64.3901 62.3942H49.8752C49.1633 62.3942 48.5862 62.9713 48.5862 63.6832C48.5862 64.3951 49.1633 64.9723 49.8752 64.9723H67.0734C67.8421 64.9723 68.4673 65.5976 68.4673 66.3662C68.4673 67.1349 67.8419 67.7598 67.0734 67.7598Z" fill="#B6A69D"/>
</g>
<defs>
<clipPath id="clip0_4004_3988">
<rect width="60" height="60" fill="white" transform="translate(24 24)"/>
</clipPath>
</defs>
</svg>
