<svg width="108" height="108" viewBox="0 0 108 108" fill="none" xmlns="http://www.w3.org/2000/svg">
<rect width="108" height="108" rx="54" fill="#201F1E"/>
<g clip-path="url(#clip0_4004_4007)">
<path d="M66.5264 58.8773C65.6324 58.8989 64.9742 57.9145 65.336 57.0962C65.7615 56.0446 67.2923 56.0436 67.7171 57.0962C68.0794 57.9144 67.4206 58.8992 66.5264 58.8773Z" fill="#B6A69D"/>
<path d="M48.361 45.5616H55.7876C50.5867 45.5616 46.3553 41.3303 46.3553 36.1294C46.3553 33.6032 47.3401 31.2123 49.1282 29.3966C50.9185 27.579 53.2836 26.578 55.7876 26.578C58.2916 26.578 60.6566 27.579 62.4469 29.3966C64.2351 31.2123 65.2199 33.6032 65.2199 36.1294C65.2199 41.3303 60.9886 45.5616 55.7876 45.5616H63.2142C66.0039 43.3604 67.7977 39.9505 67.7977 36.1294C67.7977 32.9222 66.5497 29.8886 64.2835 27.5877C62.005 25.2741 58.9878 24 55.7876 24C52.5874 24 49.5701 25.2741 47.2916 27.5877C45.0254 29.8886 43.7773 32.9221 43.7773 36.1294C43.7775 39.9505 45.5713 43.3604 48.361 45.5616Z" fill="#CDC2BC"/>
<path d="M55.7875 40.992C53.1062 40.992 50.9248 38.8106 50.9248 36.1293C50.9248 33.448 53.1062 31.2666 55.7875 31.2666C58.4688 31.2666 60.6503 33.448 60.6503 36.1293C60.6503 38.8106 58.469 40.992 55.7875 40.992ZM55.7875 33.8446C54.5277 33.8446 53.5028 34.8695 53.5028 36.1293C53.5028 37.3891 54.5277 38.414 55.7875 38.414C57.0473 38.414 58.0723 37.3891 58.0723 36.1293C58.0723 34.8695 57.0475 33.8446 55.7875 33.8446Z" fill="#CDC2BC"/>
<path d="M79.136 56.2827H77.8221C77.2359 54.0393 76.269 51.9652 74.9379 50.0949L80.001 44.109C80.2098 43.8622 80.3181 43.5459 80.3047 43.2229C80.2912 42.8999 80.1569 42.5938 79.9283 42.3651C78.697 41.1319 77.1087 40.3176 75.3886 40.0375C73.6685 39.7575 71.9039 40.026 70.345 40.805L68.7757 41.5877C68.163 41.2609 67.5374 40.9589 66.9004 40.6823C66.571 41.4828 66.1559 42.2453 65.6625 42.9566C66.5004 43.3106 67.3167 43.7134 68.1075 44.1629C68.2914 44.2678 68.4983 44.3257 68.71 44.3315C68.9216 44.3373 69.1314 44.291 69.3209 44.1964L71.4955 43.1119C72.3905 42.6647 73.3871 42.4599 74.386 42.5178C75.3849 42.5758 76.3511 42.8945 77.1884 43.4423L72.3046 49.2161C72.1118 49.444 72.004 49.7318 71.9998 50.0304C71.9957 50.329 72.0953 50.6197 72.2816 50.853C73.9095 52.8908 75.0047 55.2384 75.5367 57.8307C75.5963 58.1215 75.7546 58.3828 75.9846 58.5704C76.2147 58.7581 76.5024 58.8606 76.7993 58.8606H79.1358C80.3957 58.8606 81.4206 59.8855 81.4206 61.1453V64.7191C81.4206 65.9789 80.3957 67.0039 79.1358 67.0039C78.8319 67.0039 76.1522 67.0045 75.6795 67.0246C75.4386 67.0349 75.2054 67.1125 75.0065 67.2487C74.8075 67.3849 74.6507 67.5741 74.5539 67.795C73.3779 70.4779 71.5187 72.867 69.3187 74.5221C69.16 74.6415 69.031 74.796 68.9418 74.9735C68.8527 75.151 68.8057 75.3467 68.8047 75.5454C68.8025 75.9629 68.7999 77.5575 68.7977 79.1363C68.7992 81.1616 66.2962 82.1815 64.8611 80.7807C64.6587 80.5793 64.4982 80.3396 64.3891 80.0757C64.2799 79.8118 64.2242 79.5288 64.2252 79.2432C64.2258 78.4965 64.2265 77.9037 64.227 77.7058C64.2451 76.7474 63.1682 76.1016 62.3317 76.5647C59.3892 78.2466 52.1895 78.2474 49.2455 76.5661C49.0491 76.4615 48.8289 76.4095 48.6064 76.4152C48.384 76.4209 48.1668 76.4841 47.976 76.5987C47.7852 76.7133 47.6274 76.8753 47.5178 77.069C47.4082 77.2627 47.3507 77.4815 47.3508 77.704V79.2448C47.3508 80.4431 46.3762 81.4179 45.1783 81.4179C43.8816 81.4788 42.7737 80.4405 42.7757 79.137C42.7729 77.4323 42.7694 75.6203 42.7666 74.9529C42.7657 74.7409 42.7126 74.5323 42.6119 74.3458C42.5111 74.1592 42.3659 74.0004 42.1891 73.8834C29.4369 65.412 31.9463 48.7272 45.9087 42.951C45.4169 42.2414 45.0032 41.4807 44.6746 40.6823C36.3666 44.293 31.1143 51.6353 31.2751 59.7168C30.1813 59.4779 29.1697 58.9359 28.3456 58.1303C27.2074 57.0177 26.5805 55.5501 26.5805 53.998C26.5805 53.2861 26.0034 52.709 25.2915 52.709C24.5797 52.709 24.0026 53.2861 24.0026 53.998C23.9155 58.1529 27.4127 61.9538 31.5243 62.3701C32.3991 67.5406 35.4926 72.3248 40.1911 75.6398C40.1934 76.509 40.1959 77.8558 40.1981 79.1415C40.3967 85.2844 49.2179 85.739 49.9152 79.6103C53.2223 80.685 58.3546 80.6849 61.6613 79.61C61.7992 82.0608 64.0554 84.1018 66.5132 83.9959C69.1908 83.9959 71.3722 81.8176 71.376 79.1401C71.3775 78.0184 71.3792 76.8889 71.3809 76.1814C73.4975 74.4589 75.3058 72.1579 76.563 69.5893C77.4207 69.5842 78.2784 69.5817 79.1361 69.5819C81.8174 69.5819 83.9988 67.4005 83.9988 64.7192V61.1455C83.9987 58.4641 81.8174 56.2827 79.136 56.2827Z" fill="#B6A69D"/>
<path d="M64.7222 48.1395H46.8534C46.1416 48.1395 45.5645 47.5624 45.5645 46.8505C45.5645 46.1386 46.1416 45.5615 46.8534 45.5615H64.7222C65.4341 45.5615 66.0112 46.1386 66.0112 46.8505C66.0112 47.5624 65.4341 48.1395 64.7222 48.1395Z" fill="#B6A69D"/>
</g>
<defs>
<clipPath id="clip0_4004_4007">
<rect width="60" height="60" fill="white" transform="translate(24 24)"/>
</clipPath>
</defs>
</svg>
