<svg width="108" height="108" viewBox="0 0 108 108" fill="none" xmlns="http://www.w3.org/2000/svg">
<rect width="108" height="108" rx="54" fill="#201F1E"/>
<g clip-path="url(#clip0_4004_4019)">
<path d="M82.5308 30.5654C81.5837 29.6424 80.3332 29.1521 79.0095 29.1869C76.3983 29.2542 74.2739 31.471 74.2739 34.1287V48.1519C73.5789 47.781 72.7991 47.5842 71.989 47.5842C70.6901 47.5842 69.4688 48.0901 68.5502 49.0086L55.1772 62.3819C54.725 62.8341 54.3329 63.3303 54 63.859C53.6671 63.3302 53.2748 62.834 52.8227 62.3818L39.4496 49.0087C38.5311 48.0902 37.3099 47.5843 36.0109 47.5843C35.2008 47.5843 34.421 47.7811 33.7261 48.152V34.0483C33.7261 32.7256 33.2044 31.4887 32.2569 30.5654C31.3097 29.6423 30.0564 29.151 28.7354 29.1869C26.1243 29.2542 24 31.4711 24 34.1288V53.8646C24 55.5981 24.4903 57.2885 25.4179 58.7529L35.268 74.3048C36.2229 75.8124 36.7277 77.5525 36.7277 79.337V82.649C36.7277 83.3609 37.3049 83.9381 38.0168 83.9381H69.9833C70.6952 83.9381 71.2724 83.3609 71.2724 82.649V79.337C71.2724 77.5525 71.7771 75.8123 72.732 74.3048L82.5821 58.7529C83.5097 57.2885 84 55.598 84 53.8645V34.0483C84 32.7256 83.4783 31.4887 82.5308 30.5654ZM37.4461 72.9253L27.5959 57.3734C26.93 56.3221 26.5781 55.1088 26.5781 53.8645V34.1288C26.5781 32.8566 27.5757 31.7958 28.8019 31.7642C29.4232 31.7481 30.0127 31.9782 30.4576 32.4118C30.9028 32.8457 31.148 33.4269 31.148 34.0483V52.5069C31.148 52.5256 31.15 52.5439 31.1508 52.5624C31.1798 53.8182 31.6811 54.9947 32.5723 55.886L39.0904 62.404C39.5938 62.9075 40.41 62.9075 40.9134 62.404C41.4168 61.9006 41.4168 61.0844 40.9134 60.581L34.3954 54.0629C33.9637 53.6313 33.7261 53.0575 33.7261 52.4472C33.7261 51.8369 33.9637 51.2631 34.3954 50.8315C34.827 50.3999 35.4007 50.1623 36.011 50.1623C36.6213 50.1623 37.1951 50.3999 37.6267 50.8315L50.9996 64.2045C52.1032 65.3083 52.7109 66.781 52.7109 68.3514V81.3598H39.3059V79.3369C39.3059 77.0634 38.6627 74.8462 37.4461 72.9253ZM81.4219 53.8645C81.4219 55.1088 81.0698 56.3221 80.4041 57.3734L70.5539 72.9253C69.3373 74.8461 68.6943 77.0633 68.6943 79.337V81.3599H55.2891V68.3515C55.2891 66.7811 55.8968 65.3084 57.0004 64.2047L70.3734 50.8317C70.805 50.4001 71.3788 50.1624 71.9891 50.1624C72.5994 50.1624 73.1733 50.4001 73.6049 50.8317C74.0365 51.2633 74.274 51.837 74.274 52.4473C74.274 53.0576 74.0364 53.6315 73.6045 54.0633L67.0869 60.5852C66.5837 61.0887 66.5839 61.9049 67.0875 62.4081C67.5911 62.9113 68.4073 62.9111 68.9105 62.4076L75.4279 55.8861C76.3191 54.9949 76.8204 53.8183 76.8493 52.5625C76.8502 52.544 76.8521 52.5257 76.8521 52.507V34.1288C76.8521 32.8566 77.8498 31.7958 79.0759 31.7642C79.6989 31.7481 80.2866 31.9782 80.7315 32.4118C81.1767 32.8457 81.4219 33.427 81.4219 34.0484V53.8645Z" fill="#B6A69D"/>
<path d="M54.0004 52.1138C52.7327 52.1138 51.5487 51.615 50.6761 50.7434C48.3218 51.3931 45.6223 49.8354 45.0125 47.4735C42.4169 46.9927 40.663 44.0485 41.4785 41.5401C39.485 39.8025 39.4851 36.357 41.4785 34.6196C40.6885 32.1826 42.3237 29.2934 44.8259 28.7283C45.43 26.2875 48.2358 24.7176 50.6414 25.4556C52.3949 23.5826 55.6711 23.5999 57.3979 25.4935C59.8396 24.651 62.779 26.2651 63.365 28.7841C65.7748 29.4476 67.2862 32.2491 66.5223 34.6197C68.5158 36.3572 68.5157 39.8028 66.5223 41.5402C67.3124 43.9771 65.6772 46.8665 63.175 47.4314C62.5709 49.8722 59.7651 51.4422 57.3596 50.7041C56.4825 51.5916 55.2712 52.1138 54.0004 52.1138ZM51.0978 47.9289C51.5285 47.9289 51.947 48.1451 52.1903 48.5326C52.9745 49.8713 55.0868 49.8511 55.8374 48.4887C56.1955 47.8865 56.9691 47.6806 57.5793 48.0253C58.9091 48.834 60.7592 47.7996 60.7663 46.2421C60.7914 45.5577 61.3473 45.0123 62.0322 45.0004C63.6293 45.024 64.6929 43.1079 63.8282 41.764C63.6468 41.4615 63.5972 41.0978 63.6912 40.7576C63.7852 40.4175 64.0144 40.1308 64.3255 39.9644C65.8101 39.2295 65.8136 36.9299 64.3254 36.195C63.6863 35.8706 63.4475 35.0015 63.8282 34.3954C64.6652 33.0907 63.6917 31.2236 62.1413 31.1639C60.3748 30.9728 61.4016 28.8235 59.8682 28.1389C58.5121 27.3048 57.8438 28.5062 56.6696 28.3378C56.328 28.2501 56.0372 28.0265 55.865 27.7189C55.1269 26.3051 52.9346 26.2662 52.1632 27.6708C51.805 28.2729 51.0314 28.4786 50.4214 28.1343C49.0913 27.3253 47.2415 28.3601 47.2343 29.9174C47.2093 30.6018 46.6534 31.1472 45.9686 31.1591C44.3713 31.1356 43.3078 33.0516 44.1726 34.3954C44.354 34.698 44.4035 35.0617 44.3096 35.4018C43.8794 36.5162 42.5162 36.4339 42.5446 38.0797C42.5166 39.7225 43.8753 39.6408 44.3097 40.7575C44.4035 41.0977 44.354 41.4614 44.1725 41.764C43.283 43.1468 44.4348 45.1056 46.0775 44.9996C47.9891 45.0378 46.93 47.3303 48.4818 48.0205C49.3402 48.5989 50.2268 48.1122 51.0978 47.9289Z" fill="#CDC2BC"/>
<path d="M50.8115 44.0248C50.5523 44.0248 50.2906 43.9468 50.0635 43.7846C49.4841 43.371 49.3498 42.5659 49.7635 41.9865L56.1394 33.0567C56.5531 32.4773 57.3581 32.3429 57.9376 32.7567C58.5169 33.1704 58.6512 33.9755 58.2376 34.5548L51.8616 43.4846C51.6101 43.8369 51.2138 44.0248 50.8115 44.0248Z" fill="#B6A69D"/>
<path d="M50.8124 34.7123C48.961 34.6788 49.2397 31.8329 51.0644 32.16C52.5571 32.4189 52.327 34.7502 50.8124 34.7123Z" fill="#B6A69D"/>
<path d="M57.189 44.025C55.6741 44.0595 55.4438 41.7329 56.937 41.4715C58.7602 41.1442 59.0402 43.9892 57.189 44.025Z" fill="#B6A69D"/>
</g>
<defs>
<clipPath id="clip0_4004_4019">
<rect width="60" height="60" fill="white" transform="translate(24 24)"/>
</clipPath>
</defs>
</svg>
