<svg width="108" height="108" viewBox="0 0 108 108" fill="none" xmlns="http://www.w3.org/2000/svg">
<rect width="108" height="108" rx="54" fill="#201F1E"/>
<g clip-path="url(#clip0_4004_3998)">
<path d="M76.5576 69.584C76.2003 70.8816 75.3178 71.9633 74.1542 72.5858V75.5618C74.1542 76.8217 73.1292 77.8467 71.8694 77.8467H58.7025C58.1518 75.7528 56.2013 74.2185 53.9416 74.2728C47.5514 74.5241 47.5539 83.7486 53.9416 83.9986C56.2012 84.0528 58.1517 82.5187 58.7025 80.4247H71.8694C74.5508 80.4247 76.7323 78.2432 76.7323 75.5618V69.584H76.5576ZM56.2849 79.1941C56.1877 82.1588 51.8118 82.1581 51.7151 79.1941C51.6547 77.9271 52.6691 76.8472 53.9416 76.8508C55.254 76.7846 56.3512 77.8816 56.2849 79.1941Z" fill="#CDC2BC"/>
<path d="M79.1361 49.1364H76.7321V46.8515C76.7321 34.2512 66.5345 24 53.9998 24C41.4651 24 31.2675 34.2512 31.2675 46.8515V49.1364H28.8634C26.182 49.1364 24.0005 51.3179 24.0005 53.9993V64.721C24.0005 67.4024 26.182 69.5839 28.8634 69.5839H31.4422C32.0087 71.6415 33.8952 73.1577 36.1304 73.1577C38.8118 73.1577 40.9932 70.9763 40.9932 68.2949V50.4254C40.9932 47.744 38.8118 45.5625 36.1304 45.5625C35.3387 45.5618 34.559 45.7556 33.8598 46.1269C34.2404 35.2825 43.1279 26.5781 53.9998 26.5781C64.8716 26.5781 73.759 35.2825 74.1399 46.1269C73.4407 45.7556 72.661 45.5618 71.8693 45.5625C69.1879 45.5625 67.0065 47.744 67.0065 50.4254V68.2949C67.0065 70.9763 69.1879 73.1577 71.8693 73.1577C74.1044 73.1577 75.991 71.6415 76.5575 69.5839H79.1363C81.8177 69.5839 83.9992 67.4024 83.9992 64.721V53.9993C83.9991 51.3179 81.8176 49.1364 79.1361 49.1364ZM26.5786 64.721V53.9993C26.5786 52.7394 27.6036 51.7144 28.8634 51.7144H31.2675V67.0059H28.8634C27.6036 67.0059 26.5786 65.9809 26.5786 64.721ZM36.1304 48.1405C37.3903 48.1405 38.4152 49.1655 38.4152 50.4254V68.2949C38.4152 69.5548 37.3903 70.5797 36.1304 70.5797C34.8705 70.5797 33.8455 69.5548 33.8455 68.2949V50.4254C33.8455 49.1655 34.8705 48.1405 36.1304 48.1405ZM71.8692 70.5797C70.6093 70.5797 69.5844 69.5548 69.5844 68.2949V50.4254C69.5844 49.1655 70.6093 48.1405 71.8692 48.1405C73.129 48.1405 74.154 49.1655 74.154 50.4254V68.2949C74.154 69.5548 73.129 70.5797 71.8692 70.5797ZM81.421 64.721C81.421 65.9809 80.396 67.0059 79.1361 67.0059H76.7321V51.7144H79.1361C80.396 51.7144 81.421 52.7394 81.421 53.9993V64.721Z" fill="#B6A69D"/>
</g>
<defs>
<clipPath id="clip0_4004_3998">
<rect width="60" height="60" fill="white" transform="translate(24 24)"/>
</clipPath>
</defs>
</svg>
