<svg width="41" height="40" viewBox="0 0 41 40" fill="none" xmlns="http://www.w3.org/2000/svg">
<rect x="0.5" width="40" height="40" rx="8" fill="#50433C"/>
<path d="M27.5959 10.9367C25.7007 9.04292 23.1809 8 20.5008 8C17.8206 8 15.3008 9.04292 13.4057 10.9367C11.5105 12.8304 10.4668 15.3483 10.4668 18.0264C10.4668 19.9004 10.9865 21.7977 12.0113 23.6655C12.8174 25.1345 13.9368 26.5887 15.3385 27.9877C17.7076 30.3523 20.0467 31.734 20.1452 31.7916L20.5008 32L20.8564 31.7916C20.9548 31.734 23.294 30.3522 25.6631 27.9877C27.0648 26.5887 28.1842 25.1345 28.9903 23.6655C30.0151 21.7977 30.5348 19.9004 30.5348 18.0264C30.5348 15.3482 29.491 12.8304 27.5959 10.9367ZM24.6921 26.9707C22.9725 28.6917 21.2306 29.8871 20.5008 30.3573C19.771 29.887 18.029 28.6917 16.3094 26.9707C14.2856 24.9451 11.873 21.749 11.873 18.0264C11.873 13.2726 15.7434 9.40517 20.5008 9.40517C25.2581 9.40517 29.1285 13.2726 29.1285 18.0264C29.1285 21.749 26.716 24.9451 24.6921 26.9707Z" fill="white"/>
<path d="M20.5008 13.7878C18.2419 13.7878 16.4043 15.6241 16.4043 17.8812C16.4043 20.1383 18.242 21.9746 20.5008 21.9746C22.7595 21.9746 24.5972 20.1383 24.5972 17.8812C24.5972 15.6241 22.7596 13.7878 20.5008 13.7878ZM20.5008 20.5693C19.0173 20.5693 17.8105 19.3634 17.8105 17.8812C17.8105 16.3989 19.0174 15.193 20.5008 15.193C21.9841 15.193 23.191 16.3989 23.191 17.8812C23.191 19.3634 21.9842 20.5693 20.5008 20.5693Z" fill="white"/>
</svg>
