<svg width="40" height="40" viewBox="0 0 40 40" fill="none" xmlns="http://www.w3.org/2000/svg">
<g clip-path="url(#clip0_2397_3632)">
<path d="M36.5644 19.9999L39.9999 14.6409L34.3451 11.7177L34.6409 5.35891L28.2821 5.65469L25.3589 0L20 3.43547L14.641 0L11.7178 5.65477L5.35906 5.35898L5.65484 11.7178L0 14.6409L3.43555 19.9999L0 25.3589L5.65477 28.2821L5.35891 34.6409L11.7177 34.3452L14.6409 40L20 36.5643L25.359 39.9998L28.2822 34.3451L34.641 34.6409L34.3452 28.282L40 25.3588L36.5644 19.9999ZM32.1802 32.1801L26.8901 31.9341L24.4582 36.6384L20 33.7804L15.5417 36.6384L13.1098 31.9341L7.81977 32.1801L8.06586 26.89L3.36148 24.4581L6.21961 19.9999L3.36148 15.5417L8.06586 13.1098L7.81977 7.81977L13.1098 8.06578L15.5417 3.36133L20 6.21938L24.4582 3.36133L26.8901 8.06578L32.1802 7.81977L31.9341 13.1098L36.6385 15.5417L33.7804 19.9999L36.6385 24.4581L31.9341 26.89L32.1802 32.1801Z" fill="white"/>
<path d="M13.3086 25.03L25.0256 13.3131L26.6826 14.9701L14.9656 26.6871L13.3086 25.03Z" fill="white"/>
<path d="M24.6875 21.5625C22.749 21.5625 21.1719 23.1396 21.1719 25.0781C21.1719 27.0166 22.749 28.5938 24.6875 28.5938C26.626 28.5938 28.2031 27.0166 28.2031 25.0781C28.2031 23.1396 26.626 21.5625 24.6875 21.5625ZM24.6875 26.25C24.0413 26.25 23.5156 25.7243 23.5156 25.0781C23.5156 24.432 24.0413 23.9062 24.6875 23.9062C25.3337 23.9062 25.8594 24.432 25.8594 25.0781C25.8594 25.7243 25.3337 26.25 24.6875 26.25Z" fill="white"/>
<path d="M18.8281 14.9219C18.8281 12.9834 17.251 11.4062 15.3125 11.4062C13.374 11.4062 11.7969 12.9834 11.7969 14.9219C11.7969 16.8604 13.374 18.4375 15.3125 18.4375C17.251 18.4375 18.8281 16.8605 18.8281 14.9219ZM14.1406 14.9219C14.1406 14.2757 14.6663 13.75 15.3125 13.75C15.9587 13.75 16.4844 14.2757 16.4844 14.9219C16.4844 15.568 15.9587 16.0938 15.3125 16.0938C14.6663 16.0938 14.1406 15.5681 14.1406 14.9219Z" fill="white"/>
</g>
<defs>
<clipPath id="clip0_2397_3632">
<rect width="40" height="40" fill="white"/>
</clipPath>
</defs>
</svg>
