<svg width="56" height="56" viewBox="0 0 56 56" fill="none" xmlns="http://www.w3.org/2000/svg">
<rect width="56" height="56" rx="28" fill="#B6A69D"/>
<g clip-path="url(#clip0_2148_4795)">
<path d="M33.7741 29.4971C32.8732 30.399 31.4661 31.8077 30.2878 32.9942C28.8872 32.0774 27.6212 31.0657 26.6032 30.0477C25.346 28.7905 23.7738 27.0004 22.9242 25.7324C24.0029 24.6614 25.4135 23.2526 26.4486 22.2184L20.2302 16L17.1275 19.0469L17.1229 19.0514C16.2546 19.9197 15.8869 21.105 16.0301 22.5742C16.4881 27.2723 22.2332 34.0774 27.3118 37.4858C30.2521 39.4591 34.4783 41.2857 36.9781 38.7858C38.793 36.971 39.4868 36.2317 39.5156 36.2011L39.981 35.7041L33.7741 29.4971ZM35.9831 37.7908C34.0907 39.683 30.3378 37.8218 28.0958 36.3172C23.3831 33.1542 17.844 26.6763 17.4307 22.4376C17.3304 21.4089 17.5609 20.6051 18.1157 20.0488L20.2212 17.9812L24.4577 22.2179C22.3092 24.3632 21.6619 25.0026 21.1472 25.5121L21.4202 25.9827C22.2493 27.4109 24.1723 29.6069 25.6082 31.0428C27.1833 32.6179 28.8001 33.7299 30.4907 34.7881L30.8867 34.3883C31.7558 33.5115 33.0186 32.2453 33.7747 31.488L38.017 35.7303C37.6241 36.1359 36.9677 36.8061 35.9831 37.7908Z" fill="#0A0A0A"/>
</g>
<defs>
<clipPath id="clip0_2148_4795">
<rect width="24" height="24" fill="white" transform="translate(16 16)"/>
</clipPath>
</defs>
</svg>
