<svg width="100" height="100" viewBox="0 0 100 100" fill="none" xmlns="http://www.w3.org/2000/svg">
<path d="M96.1022 20.8533C92.4926 16.5623 85.8281 14.812 73.1003 14.812H26.8987C13.8797 14.812 7.10226 16.6752 3.50613 21.2436C0 25.6978 0 32.2607 0 41.3439V58.6565C0 76.2536 4.16 85.1881 26.8987 85.1881H73.1006C84.1381 85.1881 90.2542 83.6436 94.211 79.8569C98.2687 75.9736 100 69.6333 100 58.6565V41.3439C100 31.7649 99.7287 25.1633 96.1022 20.8533ZM64.2003 52.3904L43.2203 63.3552C42.7513 63.6004 42.2384 63.722 41.7261 63.722C41.1461 63.722 40.5674 63.5659 40.0548 63.2556C39.0897 62.6707 38.5003 61.6246 38.5003 60.4962V38.6369C38.5003 37.5104 39.0881 36.4652 40.0513 35.8801C41.0148 35.2949 42.2132 35.2549 43.2129 35.7743L64.1929 46.6685C65.2603 47.2227 65.9306 48.3246 65.9323 49.5269C65.9335 50.7301 65.2661 51.8336 64.2003 52.3904Z" fill="#FF0000"/>
</svg>
