<svg width="56" height="57" viewBox="0 0 56 57" fill="none" xmlns="http://www.w3.org/2000/svg">
<rect x="0.5" y="1" width="55" height="55" rx="27.5" stroke="#50433C"/>
<path d="M24.0003 20.1926V23.8929H20.124V35.2019H35.8776V23.8929H32.0013V20.1926H24.0003ZM25.8759 22.0682H30.1258V23.8929H25.8759V22.0682ZM21.9996 33.3263V29.473C22.3472 29.6141 22.7271 29.6919 23.1248 29.6919H27.0623V31.5051H28.9379V29.6919H32.8768C33.2745 29.6919 33.6544 29.6141 34.002 29.473V33.3263H21.9996ZM34.002 26.6912C34.002 27.3115 33.4973 27.8163 32.8768 27.8163H23.1248C22.5043 27.8163 21.9996 27.3116 21.9996 26.6912V25.7685H34.002V26.6912Z" fill="#50433C"/>
<path d="M42.6738 34.8105L41.8416 35.6427V28.4906C41.8416 24.7964 40.403 21.3232 37.7907 18.711C35.1785 16.0988 31.7053 14.6602 28.0111 14.6602C24.7619 14.6602 21.6044 15.8094 19.1201 17.8963L20.3265 19.3325C22.4734 17.529 25.2025 16.5358 28.0111 16.5358C34.6031 16.5358 39.966 21.8987 39.966 28.4907V35.6428L39.1338 34.8106L37.8076 36.1368L40.9038 39.233L44 36.1368L42.6738 34.8105Z" fill="#50433C"/>
<path d="M27.9889 40.4641C21.3969 40.4641 16.034 35.1011 16.034 28.5092V21.3571L16.8662 22.1893L18.1924 20.863L15.0962 17.7668L12 20.863L13.3262 22.1893L14.1584 21.3571V28.5092C14.1584 32.2034 15.597 35.6766 18.2093 38.2888C20.8215 40.901 24.2946 42.3396 27.9889 42.3396C31.2381 42.3396 34.3956 41.1904 36.8799 39.1035L35.6735 37.6673C33.5266 39.4708 30.7975 40.4641 27.9889 40.4641Z" fill="#50433C"/>
</svg>
