<svg width="57" height="57" viewBox="0 0 57 57" fill="none" xmlns="http://www.w3.org/2000/svg">
<rect x="0.666992" y="1" width="55" height="55" rx="27.5" stroke="#50433C"/>
<g clip-path="url(#clip0_2057_3373)">
<path d="M38.9375 32.4553C40.2747 30.4246 41.0542 27.9956 41.0542 25.3875C41.0542 18.2812 35.2727 12.5 28.1665 12.5C21.0603 12.5 15.2791 18.2812 15.2791 25.3875C15.2791 27.9956 16.0586 30.4246 17.3955 32.4553L12.3545 39.8071L18.1228 38.7317L19.1985 44.5L23.9524 37.5667C25.2737 38.0251 26.6914 38.2749 28.1665 38.2749C29.6418 38.2749 31.0596 38.0251 32.3806 37.5667L37.1348 44.5L38.2102 38.7317L43.9785 39.8071L38.9375 32.4553ZM20.2178 39.6782L19.6311 36.5317L16.4849 37.1187L18.6079 34.0222C19.6248 35.1467 20.8369 36.0911 22.1899 36.8025L20.2178 39.6782ZM17.165 25.3875C17.165 19.3213 22.1003 14.386 28.1665 14.386C34.2329 14.386 39.1682 19.3213 39.1682 25.3875C39.1682 31.4539 34.2329 36.3892 28.1665 36.3892C22.1003 36.3892 17.165 31.4539 17.165 25.3875ZM36.7019 36.5317L36.1152 39.6782L34.1433 36.8025C35.4963 36.0911 36.7085 35.1467 37.7253 34.0222L39.8484 37.1184L36.7019 36.5317Z" fill="#50433C"/>
<path d="M25.8687 28.2178L22.8022 25.1516L21.4688 26.4851L25.8687 30.885L34.8635 21.8904L33.53 20.5569L25.8687 28.2178Z" fill="#50433C"/>
</g>
<defs>
<clipPath id="clip0_2057_3373">
<rect width="32" height="32" fill="white" transform="translate(12.167 12.5)"/>
</clipPath>
</defs>
</svg>
